<?xml version="1.0" encoding="utf-8"?>
<!-- Uploaded to: SVG Repo, www.svgrepo.com, Generator: SVG Repo Mixer Tools -->
<svg width="800px" height="800px" viewBox="0 0 1024 1024" class="icon"  version="1.1" xmlns="http://www.w3.org/2000/svg"><path d="M381.5 411.1h247.8v219.1H381.5z" fill="#E1F0FF" /><path d="M787.3 401.8h-24.4v-137H626v-24.3h161.3z" fill="#446EB1" /><path d="M787.3 768.5H626v-24.4h136.9V600.5h24.4z" fill="#446EB1" /><path d="M246.7 401.8h-24.4V240.5h161.3v24.3H246.7z" fill="#446EB1" /><path d="M383.6 769.9H222.3V608.6h24.4v137h136.9z" fill="#446EB1" /><path d="M629.3 654.6H385.9c-6.7 0-12.2-5.4-12.2-12.2V398.9c0-6.7 5.4-12.2 12.2-12.2h243.5c6.7 0 12.2 5.4 12.2 12.2v243.5c-0.1 6.7-5.5 12.2-12.3 12.2zM398 630.2h219.1V411.1H398v219.1z" fill="#6D9EE8" /></svg>