<?xml version="1.0" encoding="utf-8"?>
<!-- Uploaded to: SVG Repo, www.svgrepo.com, Generator: SVG Repo Mixer Tools -->
<svg width="800px" height="800px" viewBox="0 0 1024 1024" class="icon"  version="1.1" xmlns="http://www.w3.org/2000/svg"><path d="M245.3 233.4v572.4h500v-83.5H617V507.4h45.3v-88.5h83V233.4z" fill="#E1F0FF" /><path d="M745.3 779.6h27.6v52.2h-27.6z" fill="#446EB1" /><path d="M635.3 520.8h209.5v188.1H635.3z" fill="#E1F0FF" /><path d="M676.6 437.4h123V494h-123z" fill="#C2DEFF" /><path d="M216.7 207.5h28.6v624.2h-28.6zM606.7 494h28.6v241.7h-28.6zM840.9 494h28.6v241.7h-28.6z" fill="#446EB1" /><path d="M630.5 708.9h214.4v26.8H630.5zM606.7 494h262.8v26.8H606.7zM648 410.6h180.2v26.8H648z" fill="#446EB1" /><path d="M648 424.1h28.6v92.3H648zM799.6 424.1h28.6v92.3h-28.6zM216.7 805.8h539.8v25.9H216.7zM216.7 207.5h553.5v25.9H216.7z" fill="#446EB1" /><path d="M745.3 207.5h27.6v104.3h-27.6z" fill="#446EB1" /><path d="M700.4 454.6h23v21.6h-23zM751.6 454.6h23v21.6h-23z" fill="#6D9EE8" /></svg>